<svg xmlns="http://www.w3.org/2000/svg" fill="none" viewBox="0 0 160 160">
  <mask id="a" width="160" height="150" x="0" y="5" maskUnits="userSpaceOnUse" style="mask-type:luminance">
    <path fill="#fff" d="M160 5H0v150h160V5Z" />
  </mask>
  <g mask="url(#a)">
    <path fill="#4EC375"
      d="M80 122.499c-44.85 0-80-18.675-80-42.5s35.15-42.5 80-42.5 80 18.675 80 42.5-35.15 42.5-80 42.5Zm0-72.5c-31.925 0-67.5 12.325-67.5 30s35.575 30 67.5 30c31.925 0 67.5-12.325 67.5-30s-35.575-30-67.5-30Z" />
    <path fill="#1463FF"
      d="M107.075 152.599c-20.05 0-45.7-19.825-63.9-51.35-10.325-17.875-16.6-36.75-17.7-53.175-1.2-18 3.95-31.25 14.5-37.35 10.55-6.1 24.625-3.925 39.6 6.1C93.25 26 106.45 40.874 116.775 58.75c22.425 38.85 23.825 78.625 3.2 90.525-3.9 2.25-8.25 3.325-12.925 3.325h.025Zm-53.95-132.75c-2.6 0-4.925.55-6.875 1.7-6.125 3.525-9.15 12.9-8.3 25.7.975 14.55 6.675 31.525 16.05 47.775 15.95 27.65 44.425 52.3 59.725 43.45 15.3-8.85 8.2-45.8-7.775-73.45-9.375-16.25-21.225-29.675-33.325-37.775-7.25-4.85-14-7.35-19.525-7.35l.025-.05Z" />
    <path fill="#FFBC00"
      d="M53.1 152.674c-4.775 0-9.175-1.125-13.1-3.4-10.55-6.1-15.725-19.35-14.5-37.35 1.1-16.425 7.375-35.3 17.7-53.175 22.425-38.85 56.175-59.95 76.8-48.025 20.625 11.925 19.225 51.675-3.2 90.525-10.325 17.875-23.525 32.75-37.2 41.925-9.4 6.3-18.45 9.5-26.5 9.5Zm53.45-132.95c-15.9 0-38.825 21.525-52.55 45.275-9.375 16.25-15.075 33.2-16.05 47.775-.85 12.8 2.175 22.15 8.3 25.7 6.125 3.525 15.725 1.475 26.4-5.675 12.125-8.125 23.95-21.55 33.325-37.775 15.95-27.65 23.075-64.625 7.775-73.45-2.15-1.25-4.575-1.825-7.2-1.825v-.025Z" />
    <path fill="#4EC375" d="M80 109.999c-31.925 0-67.5-12.325-67.5-30H0c0 23.825 35.15 42.5 80 42.5v-12.5Z" />
    <path fill="#1463FF"
      d="M82.875 35.374c-3.35-3.1-6.775-5.85-10.225-8.175-3.4-2.275-6.7-4.05-9.8-5.275l4.15-11.8c4.1 1.575 8.325 3.8 12.625 6.7 4.525 3.05 9.025 6.7 13.375 10.9l-10.1 7.65h-.025ZM92.9 136.199c-5.4-2.9-11.025-7.225-16.475-12.45l-9.575 8.325c5.6 5.425 11.35 9.875 17.05 13.225l9.025-9.1H92.9Z" />
    <path fill="#4EC375"
      d="M137.6 64.724c-12.8-9.1-36.025-14.725-57.6-14.725v-12.5c25.125 0 47.2 5.85 61.775 15.2L137.6 64.724Z" />
  </g>
</svg>
