<svg viewBox="0 0 112 30" fill="none" xmlns="http://www.w3.org/2000/svg">
  <g clip-path="url(#clip0_16_615)">
    <mask id="mask0_16_615" style="mask-type:luminance" maskUnits="userSpaceOnUse" x="0" y="0" width="112" height="30">
      <path d="M112 0H0V30H112V0Z" fill="white" />
    </mask>
    <g mask="url(#mask0_16_615)">
      <path
        d="M56.6551 20.8852C56.6201 20.8502 56.5751 20.8252 56.5251 20.8252C56.4751 20.8152 56.4251 20.8402 56.3901 20.8702C54.5951 22.4852 52.2951 23.3702 49.9151 23.3702C44.7251 23.3702 40.5051 19.2702 40.5051 14.2302C40.5051 9.1902 44.7251 5.1502 49.9151 5.1502C52.3001 5.1502 54.6601 6.0702 56.3851 7.6802C56.4251 7.7152 56.4701 7.7302 56.5301 7.7302C56.5801 7.7302 56.6301 7.7002 56.6651 7.6602L57.4151 6.7002C57.4751 6.6202 57.4651 6.5102 57.3901 6.4452C55.3201 4.5952 52.6551 3.5752 49.8851 3.5752C43.8101 3.5752 38.8701 8.3702 38.8701 14.2602C38.8701 20.1502 43.8101 24.9752 49.8851 24.9752C52.6351 24.9752 55.3851 23.8952 57.4201 22.0152C57.4951 21.9452 57.5001 21.8302 57.4301 21.7502L56.6501 20.8802L56.6551 20.8852Z"
        fill="black" />
      <path
        d="M62.695 2.31494H61.44C61.335 2.31494 61.25 2.40001 61.25 2.50494V24.7599C61.25 24.8649 61.335 24.9499 61.44 24.9499H62.695C62.8 24.9499 62.885 24.8649 62.885 24.7599V2.50494C62.885 2.40001 62.8 2.31494 62.695 2.31494Z"
        fill="black" />
      <path
        d="M74.2148 8.91504C69.6398 8.91504 66.3198 12.285 66.3198 16.93C66.3198 21.575 69.6398 24.975 74.2148 24.975C78.7898 24.975 82.1098 21.59 82.1098 16.93C82.1098 12.27 78.7898 8.91504 74.2148 8.91504ZM74.2148 23.435C70.5098 23.435 67.9248 20.775 67.9248 16.965C67.9248 13.155 70.5098 10.495 74.2148 10.495C77.9198 10.495 80.5048 13.155 80.5048 16.965C80.5048 20.775 77.9198 23.435 74.2148 23.435Z"
        fill="black" />
      <path
        d="M89.795 15.95C87.67 15.31 85.835 14.76 85.835 12.94C85.835 11.365 87.225 10.43 89.545 10.43C90.945 10.43 92.315 10.815 93.405 11.51C93.45 11.54 93.505 11.545 93.555 11.535C93.605 11.52 93.65 11.49 93.675 11.44L94.215 10.42C94.26 10.33 94.23 10.225 94.145 10.17C92.775 9.33504 91.24 8.91504 89.58 8.91504C87.01 8.91504 84.265 9.99504 84.265 13.03C84.265 16.065 86.955 16.815 89.325 17.555C91.44 18.215 93.44 18.835 93.385 20.79C93.27 23.27 90.31 23.46 89.4 23.46C87.48 23.46 85.62 22.755 84.31 21.53C84.27 21.49 84.215 21.47 84.155 21.48C84.1 21.49 84.05 21.52 84.02 21.57L83.45 22.53C83.405 22.605 83.42 22.7 83.48 22.76C84.945 24.165 87.085 24.97 89.34 24.97C91.93 24.97 94.955 23.82 94.955 20.58C94.955 17.34 92.215 16.67 89.795 15.94V15.95Z"
        fill="black" />
      <path
        d="M109.585 10.96C108.27 9.62004 106.455 8.91504 104.335 8.91504C99.8098 8.91504 96.5298 12.3 96.5298 16.96C96.5298 21.62 99.8148 24.975 104.335 24.975C106.815 24.975 109.015 24.07 110.535 22.425C110.6 22.355 110.6 22.245 110.535 22.175L109.815 21.365C109.78 21.325 109.73 21.305 109.675 21.3C109.63 21.315 109.57 21.32 109.535 21.36C108.3 22.715 106.475 23.46 104.395 23.46C100.885 23.46 98.3948 21.065 98.1448 17.475H111.595C111.695 17.475 111.78 17.395 111.785 17.29C111.835 14.7 111.05 12.45 109.585 10.955V10.96ZM98.1848 15.99C98.5548 12.655 101.005 10.425 104.34 10.425C107.675 10.425 109.945 12.6 110.255 15.99H98.1848Z"
        fill="black" />
      <path
        d="M16 23.5054C7.03 23.5054 0 19.7704 0 15.0054C0 10.2404 7.03 6.50537 16 6.50537C24.97 6.50537 32 10.2404 32 15.0054C32 19.7704 24.97 23.5054 16 23.5054ZM16 9.00537C9.615 9.00537 2.5 11.4704 2.5 15.0054C2.5 18.5404 9.615 21.0054 16 21.0054C22.385 21.0054 29.5 18.5404 29.5 15.0054C29.5 11.4704 22.385 9.00537 16 9.00537Z"
        fill="#4EC375" />
      <path
        d="M21.4152 29.525C17.4052 29.525 12.2752 25.56 8.63521 19.255C6.57021 15.68 5.31521 11.905 5.09521 8.62001C4.85521 5.02001 5.88521 2.37001 7.99521 1.15001C10.1052 -0.0699896 12.9202 0.36501 15.9152 2.37001C18.6502 4.20501 21.2902 7.18001 23.3552 10.755C27.8402 18.525 28.1202 26.48 23.9952 28.86C23.2152 29.31 22.3452 29.525 21.4102 29.525H21.4152ZM10.6252 2.97501C10.1052 2.97501 9.64021 3.08501 9.25021 3.31501C8.02521 4.02001 7.42021 5.89501 7.59021 8.45501C7.78521 11.365 8.92521 14.76 10.8002 18.01C13.9902 23.54 19.6852 28.47 22.7452 26.7C25.8052 24.93 24.3852 17.54 21.1902 12.01C19.3152 8.76001 16.9452 6.07501 14.5252 4.45501C13.0752 3.48501 11.7252 2.98501 10.6202 2.98501L10.6252 2.97501Z"
        fill="#1463FF" />
      <path
        d="M10.6198 29.5402C9.6648 29.5402 8.7848 29.3152 7.9998 28.8602C5.8898 27.6402 4.85481 24.9902 5.0998 21.3902C5.3198 18.1052 6.57481 14.3302 8.63981 10.7552C13.1248 2.9852 19.8748 -1.2348 23.9998 1.1452C28.1248 3.5302 27.8448 11.4802 23.3598 19.2502C21.2948 22.8252 18.6548 25.8002 15.9198 27.6352C14.0398 28.8952 12.2298 29.5352 10.6198 29.5352V29.5402ZM21.3098 2.9452C18.1298 2.9452 13.5448 7.2502 10.7998 12.0002C8.9248 15.2502 7.7848 18.6402 7.5898 21.5552C7.4198 24.1152 8.0248 25.9852 9.2498 26.6952C10.4748 27.4002 12.3948 26.9902 14.5298 25.5602C16.9548 23.9352 19.3198 21.2502 21.1948 18.0052C24.3848 12.4752 25.8098 5.0802 22.7498 3.3152C22.3198 3.0652 21.8348 2.9502 21.3098 2.9502V2.9452Z"
        fill="#FFBC00" />
      <path d="M16 21.0054C9.615 21.0054 2.5 18.5404 2.5 15.0054H0C0 19.7704 7.03 23.5054 16 23.5054V21.0054Z"
        fill="#4EC375" />
      <path
        d="M16.5748 6.07979C15.9048 5.45979 15.2198 4.90979 14.5298 4.44479C13.8498 3.98979 13.1898 3.63479 12.5698 3.38979L13.3998 1.02979C14.2198 1.34479 15.0648 1.78979 15.9248 2.36979C16.8298 2.97979 17.7298 3.70979 18.5998 4.54979L16.5798 6.07979H16.5748Z"
        fill="#1463FF" />
      <path
        d="M18.5801 26.2454C17.5001 25.6654 16.3751 24.8004 15.2851 23.7554L13.3701 25.4204C14.4901 26.5054 15.6401 27.3954 16.7801 28.0654L18.5851 26.2454H18.5801Z"
        fill="#1463FF" />
      <path d="M27.52 11.945C24.96 10.125 20.315 9 16 9V6.5C21.025 6.5 25.44 7.67 28.355 9.54L27.52 11.945Z"
        fill="#4EC375" />
    </g>
  </g>
  <defs>
    <clipPath id="clip0_16_615">
      <rect width="112" height="30" fill="white" />
    </clipPath>
  </defs>
</svg>
